# xmcd
#
# Track frame offsets:
#      212
#      14802
#      25500
#      38142
#      49502
#      61667
#      75240
#      89142
#      99877
#      110575
#      123857
#      138692
#      149375
#      164875
#      177740
#      190797
# 
# Disc length: 2735 seconds
#
# Revision: 3
# Processed by: cddbd v1.4PL0 Copyright (c) Steve Scherf et al.
#
# Submitted via: FreeRIP 1.20
#
DISCID=da0aad10
DTITLE=Kenny Rogers - Kenny Rogers
DYEAR=1900
DGENRE=country
TTITLE0=Sunshine
TTITLE1=Goodtime Liberator
TTITLE2=Reuben James
TTITLE3=Always Leaving, Always Gone
TTITLE4=Elvira
TTITLE5=Shine On Ruby Mountain
TTITLE6=Looser
TTITLE7=Homemade Lie
TTITLE8=Ticket To Nowhere
TTITLE9=Ruby Don't Take Your Love To Town
TTITLE10=Conditions (Just Dropped In)
TTITLE11=She Even Woke Me Up To Say Goodbye
TTITLE12=My Washington Woman
TTITLE13=Run Thru Your Mind
TTITLE14=Sleep Comes Easy
TTITLE15=After All (I Live My Life)
EXTD=
EXTT0=
EXTT1=
EXTT2=
EXTT3=
EXTT4=
EXTT5=
EXTT6=
EXTT7=
EXTT8=
EXTT9=
EXTT10=
EXTT11=
EXTT12=
EXTT13=
EXTT14=
EXTT15=
PLAYORDER=
